<mxfile host="Electron" modified="2024-07-31T09:37:40.452Z" agent="Mozilla/5.0 (Macintosh; Intel Mac OS X 10_15_7) AppleWebKit/537.36 (KHTML, like Gecko) draw.io/24.2.5 Chrome/120.0.6099.109 Electron/28.1.0 Safari/537.36" etag="WXywZuB2PM7iUghMKBPj" version="24.2.5" type="device">
  <diagram name="Pagina-1" id="zoVRfw7UJDPlq51-ZnH2">
    <mxGraphModel dx="977" dy="708" grid="1" gridSize="10" guides="1" tooltips="1" connect="1" arrows="1" fold="1" page="1" pageScale="1" pageWidth="1169" pageHeight="827" math="0" shadow="0">
      <root>
        <mxCell id="0" />
        <mxCell id="1" parent="0" />
        <mxCell id="mOxUPGumoj-LqVbPse46-1" value="EFS&lt;div&gt;(Storage)&lt;/div&gt;" style="sketch=0;points=[[0,0,0],[0.25,0,0],[0.5,0,0],[0.75,0,0],[1,0,0],[0,1,0],[0.25,1,0],[0.5,1,0],[0.75,1,0],[1,1,0],[0,0.25,0],[0,0.5,0],[0,0.75,0],[1,0.25,0],[1,0.5,0],[1,0.75,0]];outlineConnect=0;fontColor=#232F3E;fillColor=#7AA116;strokeColor=#ffffff;dashed=0;verticalLabelPosition=top;verticalAlign=bottom;align=center;html=1;fontSize=12;fontStyle=0;aspect=fixed;shape=mxgraph.aws4.resourceIcon;resIcon=mxgraph.aws4.efs_standard;labelPosition=center;" vertex="1" parent="1">
          <mxGeometry x="633.51" y="120" width="78" height="78" as="geometry" />
        </mxCell>
        <mxCell id="mOxUPGumoj-LqVbPse46-2" value="Fargate&lt;div&gt;(Compute)&lt;/div&gt;" style="sketch=0;points=[[0,0,0],[0.25,0,0],[0.5,0,0],[0.75,0,0],[1,0,0],[0,1,0],[0.25,1,0],[0.5,1,0],[0.75,1,0],[1,1,0],[0,0.25,0],[0,0.5,0],[0,0.75,0],[1,0.25,0],[1,0.5,0],[1,0.75,0]];outlineConnect=0;fontColor=#232F3E;fillColor=#ED7100;strokeColor=#ffffff;dashed=0;verticalLabelPosition=bottom;verticalAlign=top;align=center;html=1;fontSize=12;fontStyle=0;aspect=fixed;shape=mxgraph.aws4.resourceIcon;resIcon=mxgraph.aws4.fargate;" vertex="1" parent="1">
          <mxGeometry x="840" y="279" width="78" height="78" as="geometry" />
        </mxCell>
        <mxCell id="mOxUPGumoj-LqVbPse46-9" value="" style="edgeStyle=orthogonalEdgeStyle;rounded=0;orthogonalLoop=1;jettySize=auto;html=1;" edge="1" parent="1" source="mOxUPGumoj-LqVbPse46-3" target="mOxUPGumoj-LqVbPse46-4">
          <mxGeometry relative="1" as="geometry" />
        </mxCell>
        <mxCell id="mOxUPGumoj-LqVbPse46-10" value="Manages" style="edgeLabel;html=1;align=center;verticalAlign=middle;resizable=0;points=[];" vertex="1" connectable="0" parent="mOxUPGumoj-LqVbPse46-9">
          <mxGeometry x="-0.173" y="3" relative="1" as="geometry">
            <mxPoint x="4" y="3" as="offset" />
          </mxGeometry>
        </mxCell>
        <mxCell id="mOxUPGumoj-LqVbPse46-3" value="ECS" style="sketch=0;points=[[0,0,0],[0.25,0,0],[0.5,0,0],[0.75,0,0],[1,0,0],[0,1,0],[0.25,1,0],[0.5,1,0],[0.75,1,0],[1,1,0],[0,0.25,0],[0,0.5,0],[0,0.75,0],[1,0.25,0],[1,0.5,0],[1,0.75,0]];outlineConnect=0;fontColor=#232F3E;fillColor=#ED7100;strokeColor=#ffffff;dashed=0;verticalLabelPosition=bottom;verticalAlign=top;align=center;html=1;fontSize=12;fontStyle=0;aspect=fixed;shape=mxgraph.aws4.resourceIcon;resIcon=mxgraph.aws4.ecs;" vertex="1" parent="1">
          <mxGeometry x="440" y="279" width="78" height="78" as="geometry" />
        </mxCell>
        <mxCell id="mOxUPGumoj-LqVbPse46-7" value="" style="edgeStyle=orthogonalEdgeStyle;rounded=0;orthogonalLoop=1;jettySize=auto;html=1;" edge="1" parent="1" source="mOxUPGumoj-LqVbPse46-4" target="mOxUPGumoj-LqVbPse46-1">
          <mxGeometry relative="1" as="geometry" />
        </mxCell>
        <mxCell id="mOxUPGumoj-LqVbPse46-13" value="Stores" style="edgeLabel;html=1;align=center;verticalAlign=middle;resizable=0;points=[];" vertex="1" connectable="0" parent="mOxUPGumoj-LqVbPse46-7">
          <mxGeometry x="0.2099" y="1" relative="1" as="geometry">
            <mxPoint x="1" y="10" as="offset" />
          </mxGeometry>
        </mxCell>
        <mxCell id="mOxUPGumoj-LqVbPse46-11" value="" style="edgeStyle=orthogonalEdgeStyle;rounded=0;orthogonalLoop=1;jettySize=auto;html=1;" edge="1" parent="1" source="mOxUPGumoj-LqVbPse46-4" target="mOxUPGumoj-LqVbPse46-2">
          <mxGeometry relative="1" as="geometry" />
        </mxCell>
        <mxCell id="mOxUPGumoj-LqVbPse46-12" value="Runs on" style="edgeLabel;html=1;align=center;verticalAlign=middle;resizable=0;points=[];" vertex="1" connectable="0" parent="mOxUPGumoj-LqVbPse46-11">
          <mxGeometry x="-0.15" relative="1" as="geometry">
            <mxPoint x="2" as="offset" />
          </mxGeometry>
        </mxCell>
        <mxCell id="mOxUPGumoj-LqVbPse46-4" value="Grafana Service(s)" style="sketch=0;outlineConnect=0;fontColor=#232F3E;gradientColor=none;fillColor=#ED7100;strokeColor=none;dashed=0;verticalLabelPosition=bottom;verticalAlign=top;align=left;html=1;fontSize=12;fontStyle=0;aspect=fixed;pointerEvents=1;shape=mxgraph.aws4.ecs_service;labelPosition=right;" vertex="1" parent="1">
          <mxGeometry x="640" y="279" width="65.01" height="80" as="geometry" />
        </mxCell>
        <mxCell id="mOxUPGumoj-LqVbPse46-15" style="edgeStyle=orthogonalEdgeStyle;rounded=0;orthogonalLoop=1;jettySize=auto;html=1;exitX=1;exitY=0.5;exitDx=0;exitDy=0;exitPerimeter=0;" edge="1" parent="1" source="mOxUPGumoj-LqVbPse46-22" target="mOxUPGumoj-LqVbPse46-4">
          <mxGeometry relative="1" as="geometry" />
        </mxCell>
        <mxCell id="mOxUPGumoj-LqVbPse46-17" value="User" style="shape=umlActor;verticalLabelPosition=bottom;verticalAlign=top;html=1;outlineConnect=0;" vertex="1" parent="1">
          <mxGeometry x="220" y="450" width="30" height="60" as="geometry" />
        </mxCell>
        <mxCell id="mOxUPGumoj-LqVbPse46-18" style="edgeStyle=orthogonalEdgeStyle;rounded=0;orthogonalLoop=1;jettySize=auto;html=1;entryX=0;entryY=0.5;entryDx=0;entryDy=0;entryPerimeter=0;" edge="1" parent="1" source="mOxUPGumoj-LqVbPse46-17" target="mOxUPGumoj-LqVbPse46-22">
          <mxGeometry relative="1" as="geometry" />
        </mxCell>
        <mxCell id="mOxUPGumoj-LqVbPse46-20" value="https://grafana.example.com" style="edgeLabel;html=1;align=center;verticalAlign=middle;resizable=0;points=[];" vertex="1" connectable="0" parent="mOxUPGumoj-LqVbPse46-18">
          <mxGeometry x="0.0458" y="3" relative="1" as="geometry">
            <mxPoint x="-6" y="3" as="offset" />
          </mxGeometry>
        </mxCell>
        <mxCell id="mOxUPGumoj-LqVbPse46-21" value="Fargate Spot Fallback&lt;div&gt;Lambda Function&lt;/div&gt;" style="sketch=0;points=[[0,0,0],[0.25,0,0],[0.5,0,0],[0.75,0,0],[1,0,0],[0,1,0],[0.25,1,0],[0.5,1,0],[0.75,1,0],[1,1,0],[0,0.25,0],[0,0.5,0],[0,0.75,0],[1,0.25,0],[1,0.5,0],[1,0.75,0]];outlineConnect=0;fontColor=#232F3E;fillColor=#ED7100;strokeColor=#ffffff;dashed=0;verticalLabelPosition=top;verticalAlign=bottom;align=center;html=1;fontSize=12;fontStyle=0;aspect=fixed;shape=mxgraph.aws4.resourceIcon;resIcon=mxgraph.aws4.lambda;labelPosition=center;" vertex="1" parent="1">
          <mxGeometry x="440" y="120" width="78" height="78" as="geometry" />
        </mxCell>
        <mxCell id="mOxUPGumoj-LqVbPse46-22" value="Application&amp;nbsp;&lt;div&gt;Load Balancer&lt;/div&gt;" style="sketch=0;points=[[0,0,0],[0.25,0,0],[0.5,0,0],[0.75,0,0],[1,0,0],[0,1,0],[0.25,1,0],[0.5,1,0],[0.75,1,0],[1,1,0],[0,0.25,0],[0,0.5,0],[0,0.75,0],[1,0.25,0],[1,0.5,0],[1,0.75,0]];outlineConnect=0;fontColor=#232F3E;fillColor=#ED7100;strokeColor=#ffffff;dashed=0;verticalLabelPosition=bottom;verticalAlign=top;align=center;html=1;fontSize=12;fontStyle=0;aspect=fixed;shape=mxgraph.aws4.resourceIcon;resIcon=mxgraph.aws4.elastic_load_balancing;" vertex="1" parent="1">
          <mxGeometry x="440" y="441" width="78" height="78" as="geometry" />
        </mxCell>
        <mxCell id="mOxUPGumoj-LqVbPse46-26" style="edgeStyle=orthogonalEdgeStyle;rounded=0;orthogonalLoop=1;jettySize=auto;html=1;exitX=0.25;exitY=0;exitDx=0;exitDy=0;exitPerimeter=0;entryX=0.25;entryY=1;entryDx=0;entryDy=0;entryPerimeter=0;" edge="1" parent="1" source="mOxUPGumoj-LqVbPse46-3" target="mOxUPGumoj-LqVbPse46-21">
          <mxGeometry relative="1" as="geometry" />
        </mxCell>
        <mxCell id="mOxUPGumoj-LqVbPse46-27" value="&lt;div&gt;Placement&lt;/div&gt;&lt;div&gt;Failure&lt;/div&gt;Event" style="edgeLabel;html=1;align=center;verticalAlign=middle;resizable=0;points=[];rotation=-90;" vertex="1" connectable="0" parent="mOxUPGumoj-LqVbPse46-26">
          <mxGeometry x="0.2593" relative="1" as="geometry">
            <mxPoint x="-1" y="12" as="offset" />
          </mxGeometry>
        </mxCell>
        <mxCell id="mOxUPGumoj-LqVbPse46-29" style="edgeStyle=orthogonalEdgeStyle;rounded=0;orthogonalLoop=1;jettySize=auto;html=1;exitX=0.25;exitY=0;exitDx=0;exitDy=0;exitPerimeter=0;entryX=0.25;entryY=1;entryDx=0;entryDy=0;entryPerimeter=0;startArrow=classic;startFill=1;endArrow=none;endFill=0;" edge="1" parent="1">
          <mxGeometry relative="1" as="geometry">
            <mxPoint x="500" y="279" as="sourcePoint" />
            <mxPoint x="500" y="198" as="targetPoint" />
          </mxGeometry>
        </mxCell>
        <mxCell id="mOxUPGumoj-LqVbPse46-30" value="On-demand&lt;div&gt;Fargate&lt;/div&gt;" style="edgeLabel;html=1;align=center;verticalAlign=middle;resizable=0;points=[];rotation=-90;" vertex="1" connectable="0" parent="mOxUPGumoj-LqVbPse46-29">
          <mxGeometry x="0.2593" relative="1" as="geometry">
            <mxPoint y="8" as="offset" />
          </mxGeometry>
        </mxCell>
        <mxCell id="mOxUPGumoj-LqVbPse46-32" style="edgeStyle=orthogonalEdgeStyle;rounded=0;orthogonalLoop=1;jettySize=auto;html=1;dashed=1;" edge="1" parent="1" source="mOxUPGumoj-LqVbPse46-31">
          <mxGeometry relative="1" as="geometry">
            <mxPoint x="340" y="470" as="targetPoint" />
          </mxGeometry>
        </mxCell>
        <mxCell id="mOxUPGumoj-LqVbPse46-31" value="Route53&lt;div&gt;(DNS)&lt;/div&gt;" style="sketch=0;points=[[0,0,0],[0.25,0,0],[0.5,0,0],[0.75,0,0],[1,0,0],[0,1,0],[0.25,1,0],[0.5,1,0],[0.75,1,0],[1,1,0],[0,0.25,0],[0,0.5,0],[0,0.75,0],[1,0.25,0],[1,0.5,0],[1,0.75,0]];outlineConnect=0;fontColor=#232F3E;fillColor=#8C4FFF;strokeColor=#ffffff;dashed=0;verticalLabelPosition=bottom;verticalAlign=top;align=center;html=1;fontSize=12;fontStyle=0;aspect=fixed;shape=mxgraph.aws4.resourceIcon;resIcon=mxgraph.aws4.route_53;" vertex="1" parent="1">
          <mxGeometry x="196" y="281" width="78" height="78" as="geometry" />
        </mxCell>
        <mxCell id="mOxUPGumoj-LqVbPse46-37" style="edgeStyle=orthogonalEdgeStyle;rounded=0;orthogonalLoop=1;jettySize=auto;html=1;dashed=1;endArrow=none;endFill=0;" edge="1" parent="1" source="mOxUPGumoj-LqVbPse46-33">
          <mxGeometry relative="1" as="geometry">
            <mxPoint x="340" y="320" as="targetPoint" />
          </mxGeometry>
        </mxCell>
        <mxCell id="mOxUPGumoj-LqVbPse46-33" value="Amazon&amp;nbsp;&lt;div&gt;Certificate Manager&lt;/div&gt;" style="sketch=0;points=[[0,0,0],[0.25,0,0],[0.5,0,0],[0.75,0,0],[1,0,0],[0,1,0],[0.25,1,0],[0.5,1,0],[0.75,1,0],[1,1,0],[0,0.25,0],[0,0.5,0],[0,0.75,0],[1,0.25,0],[1,0.5,0],[1,0.75,0]];outlineConnect=0;fontColor=#232F3E;fillColor=#DD344C;strokeColor=#ffffff;dashed=0;verticalLabelPosition=bottom;verticalAlign=top;align=center;html=1;fontSize=12;fontStyle=0;aspect=fixed;shape=mxgraph.aws4.resourceIcon;resIcon=mxgraph.aws4.certificate_manager_3;" vertex="1" parent="1">
          <mxGeometry x="196" y="120" width="78" height="78" as="geometry" />
        </mxCell>
      </root>
    </mxGraphModel>
  </diagram>
</mxfile>
